<?xml version="1.0" encoding="UTF-8"?>
<!DOCTYPE svg PUBLIC "-//W3C//DTD SVG 1.1//EN" "http://www.w3.org/Graphics/SVG/1.1/DTD/svg11.dtd">
<!-- Creator: CorelDRAW 2021 (64-Bit) -->
<svg xmlns="http://www.w3.org/2000/svg" xml:space="preserve" width="6.0708mm" height="7.7955mm" version="1.1" style="shape-rendering:geometricPrecision; text-rendering:geometricPrecision; image-rendering:optimizeQuality; fill-rule:evenodd; clip-rule:evenodd"
viewBox="0 0 56.1 72.04"
 xmlns:xlink="http://www.w3.org/1999/xlink"
 xmlns:xodm="http://www.corel.com/coreldraw/odm/2003">
 <defs>
  <style type="text/css">
   <![CDATA[
    .fil0 {fill:black}
   ]]>
  </style>
 </defs>
 <g id="Capa_x0020_1">
  <metadata id="CorelCorpID_0Corel-Layer"/>
  <path class="fil0" d="M48.72 36.47c4.51,3.67 7.39,9.27 7.39,15.54 0,11.07 -8.97,20.04 -20.04,20.04 -11.01,0 -19.95,-8.88 -20.03,-19.88l-0 0 0 -0.16 0 -20.04 12.02 0 0 20.04c0,4.43 3.59,8.01 8.01,8.01 4.43,0 8.02,-3.59 8.02,-8.01 0,-4.42 -3.57,-8 -7.99,-8.02l-4.03 0 0 -12.02 2.03 0 0.02 -0c0.68,-0.01 1.33,-0.12 1.94,-0.34l0.02 -0c1.73,-0.61 3.1,-2 3.69,-3.74l0 -0.01c0.01,-0.05 0.03,-0.09 0.04,-0.14l0 -0c0.03,-0.09 0.05,-0.18 0.08,-0.27l0.01 -0.04 0.02 -0.09 0.01 -0.06 0.01 -0.07 0.01 -0.06 0 -0c0.01,-0.04 0.02,-0.08 0.02,-0.12l0.02 -0.11 0 -0.01 0.02 -0.11 0 -0.01c0.04,-0.27 0.06,-0.55 0.06,-0.84 0,-3.32 -2.69,-6.01 -6.01,-6.01 -1.06,0 -2.05,0.27 -2.92,0.76l-0 0 -11.66 6.16 -0 0 -0 0c-0.62,0.27 -1.43,0.54 -2.04,0.68l-0.01 0 -0.14 0.04 -0 0c-1.05,0.25 -2.14,0.38 -3.26,0.38 -7.75,0 -14.03,-6.28 -14.03,-14.03 0,-7.21 5.44,-13.15 12.44,-13.94l-0.05 3.07c-3.32,0.51 -5.86,3.38 -5.86,6.84 0,3.82 3.1,6.92 6.92,6.92 1.4,0 2.71,-0.42 3.8,-1.14l0 0 0.02 -0.01c0.08,-0.05 0.15,-0.1 0.23,-0.16l5.76 -4c0.35,-0.27 0.72,-0.52 1.09,-0.76l0 -0 0.05 -0.03 0 -0 0.04 -0.03 0.01 -0.01 0.04 -0.02 0.01 -0.01 0.03 -0.02 0.02 -0.01 0.03 -0.02 0.02 -0.01 0.02 -0.02 0.02 -0.01 0.02 -0.01 0.03 -0.02 0.02 -0.01 0.03 -0.02 0.01 -0.01 0.03 -0.02 0.01 -0.01 0.04 -0.02 0.01 -0 0.04 -0.02 0 -0 0.04 -0.03 0 -0 0.04 -0.03 0 -0 0.04 -0.02 0.01 -0.01 0.03 -0.02 0.01 -0.01 0.03 -0.02 0.02 -0.01 0.02 -0.02 0.02 -0.01 0.02 -0.01 0.02 -0.01 0.02 -0.01 0.03 -0.02 0.01 -0.01 0.03 -0.02 0.01 -0.01 0.03 -0.02 0.01 -0 0.04 -0.02 0 -0 0.04 -0.02 0 0 0.04 -0.02 0 -0 0.04 -0.02 0.01 -0 0.04 -0.02 0.01 -0.01 0.03 -0.02 0.01 -0.01 0.03 -0.01 0.02 -0.01 0.02 -0.01 0.02 -0.01 0.02 -0.01 0.02 -0.01 0.02 -0.01 0.03 -0.01 0.01 -0.01 0.03 -0.02 0.01 -0 0.04 -0.02 0.01 -0 0.04 -0.02 0 -0 0.04 -0.02 0 0 0.04 -0.02 0 -0 0.04 -0.02 0.01 -0 0.04 -0.02 0.01 -0.01c0.07,-0.03 0.14,-0.07 0.21,-0.1l0.03 -0.01 0.01 -0.01 0.04 -0.02 0.01 -0 0.04 -0.02 0.01 -0 0.05 -0.02 0 -0 0.1 -0.04 0.01 -0 0.04 -0.02 0.01 -0 0.04 -0.02 0.02 -0.01 0.03 -0.01 0.02 -0.01 0.03 -0.01 0.02 -0.01 0.03 -0.01 0.03 -0.01 0.02 -0.01 0.03 -0.01 0.02 -0.01 0.04 -0.02 0.01 -0.01 0.05 -0.02 0.01 -0 0.05 -0.02 0.01 -0 0.06 -0.02 0.06 -0.02 0 0.01c2.1,-0.86 4.4,-1.33 6.81,-1.33 9.96,0 18.03,8.07 18.03,18.03 0,3.92 -1.25,7.55 -3.38,10.51z"/>
 </g>
</svg>
